<svg width="16" height="16" viewBox="0 0 16 16" fill="none" xmlns="http://www.w3.org/2000/svg">
<path d="M13.8868 5.34018L9.52014 1.84684C8.6668 1.16684 7.33347 1.16018 6.4868 1.84017L2.12014 5.34018C1.49347 5.84018 1.11347 6.84017 1.2468 7.62684L2.0868 12.6535C2.28014 13.7802 3.3268 14.6668 4.4668 14.6668H11.5335C12.6601 14.6668 13.7268 13.7602 13.9201 12.6468L14.7601 7.62017C14.8801 6.84017 14.5001 5.84018 13.8868 5.34018ZM8.50014 12.0002C8.50014 12.2735 8.27347 12.5002 8.00014 12.5002C7.7268 12.5002 7.50014 12.2735 7.50014 12.0002V10.0002C7.50014 9.72684 7.7268 9.50017 8.00014 9.50017C8.27347 9.50017 8.50014 9.72684 8.50014 10.0002V12.0002Z" fill="white"/>
</svg>
