<svg width="16" height="16" viewBox="0 0 16 16" fill="none" xmlns="http://www.w3.org/2000/svg">
<path d="M10.8332 15.0003C11.4775 15.0003 11.9998 14.478 11.9998 13.8337C11.9998 13.1893 11.4775 12.667 10.8332 12.667C10.1888 12.667 9.6665 13.1893 9.6665 13.8337C9.6665 14.478 10.1888 15.0003 10.8332 15.0003Z" fill="white"/>
<path d="M5.50016 15.0003C6.14449 15.0003 6.66683 14.478 6.66683 13.8337C6.66683 13.1893 6.14449 12.667 5.50016 12.667C4.85583 12.667 4.3335 13.1893 4.3335 13.8337C4.3335 14.478 4.85583 15.0003 5.50016 15.0003Z" fill="white"/>
<path d="M3.22683 2.62634L3.0935 4.25967C3.06683 4.57301 3.3135 4.83301 3.62683 4.83301H13.8335C14.1135 4.83301 14.3468 4.61967 14.3668 4.33967C14.4535 3.15967 13.5535 2.19967 12.3735 2.19967H4.18016C4.1135 1.90634 3.98016 1.62634 3.7735 1.39301C3.44016 1.03967 2.9735 0.833008 2.4935 0.833008H1.3335C1.06016 0.833008 0.833496 1.05967 0.833496 1.33301C0.833496 1.60634 1.06016 1.83301 1.3335 1.83301H2.4935C2.70016 1.83301 2.8935 1.91967 3.0335 2.06634C3.1735 2.21967 3.24016 2.41967 3.22683 2.62634Z" fill="white"/>
<path d="M13.6732 5.83301H3.44654C3.16654 5.83301 2.93987 6.04634 2.91321 6.31967L2.67321 9.21967C2.57987 10.3597 3.47321 11.333 4.61321 11.333H12.0265C13.0265 11.333 13.9065 10.513 13.9799 9.51301L14.1999 6.39967C14.2265 6.09301 13.9865 5.83301 13.6732 5.83301Z" fill="white"/>
</svg>
