<svg width="16" height="16" viewBox="0 0 16 16" fill="none" xmlns="http://www.w3.org/2000/svg">
<path d="M12.1268 11.8335H5.02682C4.36683 11.8335 3.73349 11.5535 3.28682 11.0668C2.84016 10.5802 2.6135 9.92683 2.66683 9.26683L3.22016 2.62683C3.24016 2.42016 3.16683 2.22017 3.02682 2.06683C2.88683 1.9135 2.69349 1.8335 2.48683 1.8335H1.3335C1.06016 1.8335 0.833496 1.60683 0.833496 1.3335C0.833496 1.06016 1.06016 0.833496 1.3335 0.833496H2.4935C2.98017 0.833496 3.44016 1.04016 3.76683 1.39349C3.94683 1.59349 4.08016 1.82683 4.15349 2.08683H12.4802C13.1535 2.08683 13.7735 2.3535 14.2268 2.8335C14.6735 3.32016 14.9002 3.9535 14.8468 4.62683L14.4868 9.62683C14.4135 10.8468 13.3468 11.8335 12.1268 11.8335ZM4.18683 3.08016L3.66683 9.34682C3.6335 9.73349 3.76016 10.1002 4.02016 10.3868C4.28016 10.6735 4.64016 10.8268 5.02682 10.8268H12.1268C12.8202 10.8268 13.4468 10.2402 13.5002 9.54683L13.8602 4.54683C13.8868 4.1535 13.7602 3.78017 13.5002 3.50684C13.2402 3.22684 12.8802 3.07349 12.4868 3.07349H4.18683V3.08016Z" fill="#4E5556"/>
<path d="M10.8333 15.1667C10.1 15.1667 9.5 14.5667 9.5 13.8333C9.5 13.1 10.1 12.5 10.8333 12.5C11.5667 12.5 12.1667 13.1 12.1667 13.8333C12.1667 14.5667 11.5667 15.1667 10.8333 15.1667ZM10.8333 13.5C10.6467 13.5 10.5 13.6467 10.5 13.8333C10.5 14.02 10.6467 14.1667 10.8333 14.1667C11.02 14.1667 11.1667 14.02 11.1667 13.8333C11.1667 13.6467 11.02 13.5 10.8333 13.5Z" fill="#4E5556"/>
<path d="M5.49984 15.1667C4.7665 15.1667 4.1665 14.5667 4.1665 13.8333C4.1665 13.1 4.7665 12.5 5.49984 12.5C6.23317 12.5 6.83317 13.1 6.83317 13.8333C6.83317 14.5667 6.23317 15.1667 5.49984 15.1667ZM5.49984 13.5C5.31317 13.5 5.1665 13.6467 5.1665 13.8333C5.1665 14.02 5.31317 14.1667 5.49984 14.1667C5.6865 14.1667 5.83317 14.02 5.83317 13.8333C5.83317 13.6467 5.6865 13.5 5.49984 13.5Z" fill="#4E5556"/>
<path d="M14 5.8335H6C5.72667 5.8335 5.5 5.60683 5.5 5.3335C5.5 5.06016 5.72667 4.8335 6 4.8335H14C14.2733 4.8335 14.5 5.06016 14.5 5.3335C14.5 5.60683 14.2733 5.8335 14 5.8335Z" fill="#4E5556"/>
</svg>
